
<svg width="2519" height="500" viewBox="0 0 2519 500" fill="none" xmlns="http://www.w3.org/2000/svg">
<path d="M223.749 50.1282C221.619 48.8996 218.996 48.9 216.867 50.1295L139.648 94.721C137.521 95.9493 134.9 95.951 132.771 94.7254L103.913 78.1097C99.3186 75.4646 99.3136 68.8369 103.904 66.1849L216.864 0.923154C218.995 -0.307797 221.621 -0.307712 223.751 0.923373L421.697 115.301C426.281 117.95 426.283 124.566 421.701 127.218L393.02 143.815C390.89 145.047 388.265 145.049 386.133 143.819L223.749 50.1282Z" fill="url(#paint0_linear_2426_453)"/>
<path d="M47.707 98.6837C49.8355 97.4582 52.4558 97.4598 54.5828 98.6878L216.867 192.381C218.997 193.61 221.621 193.61 223.75 192.38L300.964 147.792C303.094 146.562 305.717 146.562 307.847 147.792L336.612 164.395C341.201 167.044 341.202 173.668 336.613 176.317L223.749 241.483C221.62 242.712 218.997 242.712 216.867 241.484L18.8487 127.223C14.2556 124.572 14.2587 117.942 18.8544 115.296L47.707 98.6837Z" fill="url(#paint1_linear_2426_453)"/>
<path d="M397.979 265.008C397.979 262.548 399.292 260.276 401.422 259.046L430.188 242.442C434.777 239.793 440.512 243.105 440.512 248.403V378.737C440.512 381.196 439.201 383.467 437.073 384.697L239.144 499.065C234.555 501.717 228.817 498.405 228.817 493.106V459.903C228.817 457.445 230.128 455.173 232.256 453.943L394.541 360.147C396.669 358.917 397.979 356.645 397.979 354.187V265.008Z" fill="url(#paint2_linear_2426_453)"/>
<path d="M440.512 183.39C440.512 185.849 439.2 188.121 437.071 189.351L274.791 283.041C272.662 284.271 271.35 286.543 271.35 289.002V378.188C271.35 380.643 270.043 382.912 267.919 384.143L239.152 400.821C234.564 403.481 228.817 400.17 228.817 394.866V264.452C228.817 261.992 230.129 259.72 232.259 258.491L430.188 144.223C434.777 141.574 440.512 144.885 440.512 150.184V183.39Z" fill="url(#paint3_linear_2426_453)"/>
<path d="M88.5092 238.464C86.378 237.235 85.0649 234.961 85.0649 232.501V199.293C85.0649 193.995 90.7987 190.684 95.3874 193.331L208.359 258.503C210.489 259.732 211.802 262.005 211.802 264.465V493.107C211.802 498.405 206.067 501.717 201.478 499.068L172.711 482.463C170.581 481.234 169.269 478.961 169.269 476.502V289.016C169.269 286.556 167.956 284.283 165.825 283.054L88.5092 238.464Z" fill="url(#paint4_linear_2426_453)"/>
<path d="M39.1919 160.828C41.3256 162.056 42.6406 164.331 42.6406 166.793V354.173C42.6406 356.629 43.9498 358.9 46.0759 360.13L123.302 404.824C125.428 406.055 126.737 408.325 126.737 410.782V443.988C126.737 449.288 121 452.599 116.411 449.948L3.43975 384.68C1.31113 383.45 0 381.178 0 378.72V150.168C0 144.873 5.72872 141.561 10.3174 144.203L39.1919 160.828Z" fill="url(#paint5_linear_2426_453)"/>
<path d="M540.963 359V140.818H627.043C643.591 140.818 657.689 143.979 669.337 150.3C680.984 156.55 689.862 165.25 695.97 176.401C702.149 187.48 705.239 200.264 705.239 214.753C705.239 229.241 702.114 242.026 695.864 253.105C689.614 264.185 680.558 272.814 668.697 278.993C656.908 285.172 642.632 288.261 625.871 288.261H571.006V251.294H618.413C627.291 251.294 634.607 249.767 640.359 246.713C646.183 243.588 650.516 239.291 653.357 233.822C656.268 228.283 657.724 221.926 657.724 214.753C657.724 207.509 656.268 201.187 653.357 195.79C650.516 190.321 646.183 186.095 640.359 183.112C634.536 180.058 627.149 178.531 618.2 178.531H587.092V359H540.963ZM734.349 359V195.364H778.348V223.915H780.052C783.035 213.759 788.042 206.088 795.074 200.903C802.105 195.648 810.201 193.02 819.363 193.02C821.636 193.02 824.086 193.162 826.714 193.446C829.342 193.73 831.65 194.121 833.639 194.618V234.888C831.508 234.249 828.561 233.68 824.797 233.183C821.032 232.686 817.588 232.438 814.463 232.438C807.787 232.438 801.821 233.893 796.565 236.805C791.38 239.646 787.261 243.624 784.207 248.737C781.224 253.851 779.733 259.746 779.733 266.422V359H734.349ZM923.42 362.196C906.872 362.196 892.561 358.68 880.487 351.649C868.484 344.547 859.216 334.675 852.682 322.033C846.148 309.32 842.881 294.582 842.881 277.821C842.881 260.918 846.148 246.145 852.682 233.503C859.216 220.79 868.484 210.918 880.487 203.886C892.561 196.784 906.872 193.233 923.42 193.233C939.969 193.233 954.244 196.784 966.247 203.886C978.321 210.918 987.625 220.79 994.159 233.503C1000.69 246.145 1003.96 260.918 1003.96 277.821C1003.96 294.582 1000.69 309.32 994.159 322.033C987.625 334.675 978.321 344.547 966.247 351.649C954.244 358.68 939.969 362.196 923.42 362.196ZM923.634 327.04C931.162 327.04 937.447 324.909 942.49 320.648C947.533 316.315 951.332 310.42 953.889 302.963C956.517 295.506 957.831 287.018 957.831 277.501C957.831 267.984 956.517 259.497 953.889 252.04C951.332 244.582 947.533 238.687 942.49 234.355C937.447 230.023 931.162 227.857 923.634 227.857C916.034 227.857 909.642 230.023 904.457 234.355C899.344 238.687 895.473 244.582 892.845 252.04C890.288 259.497 889.01 267.984 889.01 277.501C889.01 287.018 890.288 295.506 892.845 302.963C895.473 310.42 899.344 316.315 904.457 320.648C909.642 324.909 916.034 327.04 923.634 327.04ZM1033.47 195.364H1078.85V367.097C1078.85 379.739 1076.37 389.966 1071.4 397.778C1066.42 405.591 1059.29 411.308 1049.98 414.93C1040.75 418.553 1029.71 420.364 1016.85 420.364C1015.29 420.364 1013.8 420.328 1012.38 420.257C1010.88 420.257 1009.32 420.222 1007.69 420.151V384.675C1008.9 384.746 1009.96 384.781 1010.88 384.781C1011.74 384.852 1012.66 384.888 1013.65 384.888C1020.97 384.888 1026.08 383.325 1029 380.2C1031.98 377.146 1033.47 372.53 1033.47 366.351V195.364ZM1056.06 174.27C1049.38 174.27 1043.63 172.033 1038.8 167.558C1033.97 163.013 1031.55 157.58 1031.55 151.259C1031.55 145.009 1033.97 139.646 1038.8 135.172C1043.63 130.626 1049.38 128.354 1056.06 128.354C1062.87 128.354 1068.66 130.626 1073.42 135.172C1078.25 139.646 1080.66 145.009 1080.66 151.259C1080.66 157.58 1078.25 163.013 1073.42 167.558C1068.66 172.033 1062.87 174.27 1056.06 174.27ZM1189.78 362.196C1172.95 362.196 1158.46 358.787 1146.32 351.969C1134.24 345.08 1124.94 335.349 1118.4 322.778C1111.87 310.136 1108.6 295.186 1108.6 277.928C1108.6 261.095 1111.87 246.322 1118.4 233.609C1124.94 220.896 1134.14 210.989 1146 203.886C1157.93 196.784 1171.92 193.233 1187.97 193.233C1198.77 193.233 1208.82 194.973 1218.12 198.453C1227.5 201.862 1235.66 207.011 1242.62 213.901C1249.65 220.79 1255.12 229.455 1259.03 239.895C1262.94 250.264 1264.89 262.409 1264.89 276.33V288.794H1126.71V260.669H1222.17C1222.17 254.135 1220.75 248.347 1217.91 243.304C1215.07 238.261 1211.12 234.32 1206.08 231.479C1201.11 228.567 1195.32 227.111 1188.72 227.111C1181.83 227.111 1175.72 228.709 1170.39 231.905C1165.14 235.03 1161.02 239.256 1158.04 244.582C1155.05 249.838 1153.53 255.697 1153.45 262.161V288.901C1153.45 296.997 1154.95 303.993 1157.93 309.888C1160.98 315.783 1165.28 320.328 1170.82 323.524C1176.36 326.72 1182.93 328.318 1190.53 328.318C1195.57 328.318 1200.19 327.608 1204.38 326.188C1208.57 324.767 1212.15 322.636 1215.14 319.795C1218.12 316.955 1220.39 313.474 1221.96 309.355L1263.93 312.125C1261.8 322.21 1257.43 331.017 1250.83 338.545C1244.29 346.003 1235.84 351.827 1225.47 356.017C1215.17 360.136 1203.28 362.196 1189.78 362.196ZM1368.44 362.196C1351.68 362.196 1337.26 358.645 1325.19 351.543C1313.18 344.369 1303.95 334.426 1297.49 321.713C1291.1 309 1287.9 294.369 1287.9 277.821C1287.9 261.06 1291.13 246.358 1297.59 233.716C1304.13 221.003 1313.4 211.095 1325.4 203.993C1337.4 196.82 1351.68 193.233 1368.23 193.233C1382.5 193.233 1395 195.825 1405.73 201.01C1416.45 206.195 1424.94 213.474 1431.19 222.849C1437.44 232.224 1440.88 243.233 1441.52 255.875H1398.7C1397.49 247.707 1394.29 241.138 1389.11 236.166C1383.99 231.124 1377.28 228.602 1368.97 228.602C1361.94 228.602 1355.8 230.52 1350.54 234.355C1345.36 238.119 1341.31 243.624 1338.4 250.868C1335.49 258.112 1334.03 266.884 1334.03 277.182C1334.03 287.622 1335.45 296.5 1338.29 303.815C1341.2 311.131 1345.29 316.706 1350.54 320.541C1355.8 324.376 1361.94 326.294 1368.97 326.294C1374.16 326.294 1378.81 325.229 1382.93 323.098C1387.12 320.967 1390.56 317.878 1393.26 313.83C1396.03 309.71 1397.84 304.774 1398.7 299.021H1441.52C1440.81 311.521 1437.4 322.53 1431.3 332.047C1425.26 341.493 1416.91 348.879 1406.26 354.206C1395.61 359.533 1383 362.196 1368.44 362.196ZM1557.62 195.364V229.455H1459.07V195.364H1557.62ZM1481.45 156.159H1526.83V308.716C1526.83 312.906 1527.47 316.173 1528.75 318.517C1530.03 320.79 1531.8 322.388 1534.07 323.311C1536.42 324.234 1539.12 324.696 1542.17 324.696C1544.3 324.696 1546.43 324.518 1548.56 324.163C1550.69 323.737 1552.33 323.418 1553.46 323.205L1560.6 356.976C1558.33 357.686 1555.13 358.503 1551.01 359.426C1546.89 360.42 1541.89 361.024 1535.99 361.237C1525.05 361.663 1515.47 360.207 1507.23 356.869C1499.06 353.531 1492.7 348.347 1488.16 341.315C1483.61 334.284 1481.38 325.406 1481.45 314.682V156.159Z" fill="white"/>
<path d="M1625.64 359H1576.21L1651.53 140.818H1710.97L1786.19 359H1736.75L1682.1 190.676H1680.4L1625.64 359ZM1622.55 273.24H1739.31V309.249H1622.55V273.24ZM1864.28 361.663C1851.85 361.663 1840.59 358.467 1830.5 352.075C1820.49 345.612 1812.54 336.131 1806.64 323.631C1800.82 311.06 1797.91 295.648 1797.91 277.395C1797.91 258.645 1800.92 243.055 1806.96 230.626C1813 218.126 1821.02 208.787 1831.04 202.608C1841.12 196.358 1852.17 193.233 1864.17 193.233C1873.33 193.233 1880.97 194.795 1887.07 197.92C1893.25 200.974 1898.23 204.81 1901.99 209.426C1905.82 213.972 1908.74 218.446 1910.73 222.849H1912.11V140.818H1957.39V359H1912.64V332.793H1910.73C1908.59 337.338 1905.58 341.848 1901.67 346.322C1897.83 350.726 1892.83 354.384 1886.65 357.295C1880.54 360.207 1873.08 361.663 1864.28 361.663ZM1878.66 325.548C1885.97 325.548 1892.15 323.56 1897.2 319.582C1902.31 315.534 1906.22 309.888 1908.91 302.643C1911.68 295.399 1913.07 286.912 1913.07 277.182C1913.07 267.452 1911.72 259 1909.02 251.827C1906.32 244.653 1902.42 239.114 1897.3 235.207C1892.19 231.301 1885.97 229.348 1878.66 229.348C1871.2 229.348 1864.92 231.372 1859.8 235.42C1854.69 239.469 1850.82 245.08 1848.19 252.253C1845.56 259.426 1844.25 267.736 1844.25 277.182C1844.25 286.699 1845.56 295.115 1848.19 302.43C1850.89 309.675 1854.76 315.357 1859.8 319.476C1864.92 323.524 1871.2 325.548 1878.66 325.548ZM1994.7 359V195.364H2037.95V224.234H2039.87C2043.28 214.646 2048.96 207.082 2056.92 201.543C2064.87 196.003 2074.39 193.233 2085.47 193.233C2096.69 193.233 2106.24 196.038 2114.13 201.649C2122.01 207.189 2127.26 214.717 2129.89 224.234H2131.6C2134.94 214.859 2140.97 207.366 2149.71 201.756C2158.51 196.074 2168.92 193.233 2180.92 193.233C2196.19 193.233 2208.59 198.098 2218.1 207.828C2227.69 217.487 2232.48 231.195 2232.48 248.95V359H2187.21V257.899C2187.21 248.808 2184.79 241.99 2179.96 237.445C2175.13 232.899 2169.1 230.626 2161.85 230.626C2153.61 230.626 2147.19 233.254 2142.57 238.51C2137.95 243.695 2135.65 250.548 2135.65 259.071V359H2091.65V256.94C2091.65 248.915 2089.34 242.523 2084.72 237.764C2080.18 233.006 2074.18 230.626 2066.72 230.626C2061.68 230.626 2057.13 231.905 2053.08 234.462C2049.1 236.947 2045.94 240.463 2043.6 245.009C2041.26 249.483 2040.08 254.739 2040.08 260.776V359H1994.7ZM2268.33 359V195.364H2313.72V359H2268.33ZM2291.13 174.27C2284.38 174.27 2278.6 172.033 2273.77 167.558C2269.01 163.013 2266.63 157.58 2266.63 151.259C2266.63 145.009 2269.01 139.646 2273.77 135.172C2278.6 130.626 2284.38 128.354 2291.13 128.354C2297.88 128.354 2303.63 130.626 2308.39 135.172C2313.22 139.646 2315.63 145.009 2315.63 151.259C2315.63 157.58 2313.22 163.013 2308.39 167.558C2303.63 172.033 2297.88 174.27 2291.13 174.27ZM2395.46 264.398V359H2350.07V195.364H2393.32V224.234H2395.24C2398.86 214.717 2404.94 207.189 2413.46 201.649C2421.98 196.038 2432.32 193.233 2444.46 193.233C2455.82 193.233 2465.73 195.719 2474.18 200.69C2482.64 205.662 2489.21 212.764 2493.89 221.997C2498.58 231.159 2500.92 242.097 2500.92 254.81V359H2455.54V262.906C2455.61 252.892 2453.05 245.08 2447.87 239.469C2442.69 233.787 2435.55 230.946 2426.46 230.946C2420.35 230.946 2414.95 232.26 2410.26 234.888C2405.65 237.516 2402.02 241.351 2399.4 246.393C2396.84 251.365 2395.53 257.366 2395.46 264.398Z" fill="url(#paint6_linear_2426_453)"/>
<defs>
<linearGradient id="paint0_linear_2426_453" x1="63.3686" y1="138.263" x2="63.3686" y2="455.914" gradientUnits="userSpaceOnUse">
<stop stop-color="#F25727"/>
<stop offset="1" stop-color="#EC2176"/>
</linearGradient>
<linearGradient id="paint1_linear_2426_453" x1="63.3686" y1="138.263" x2="63.3686" y2="455.914" gradientUnits="userSpaceOnUse">
<stop stop-color="#F25727"/>
<stop offset="1" stop-color="#EC2176"/>
</linearGradient>
<linearGradient id="paint2_linear_2426_453" x1="63.3686" y1="138.263" x2="63.3686" y2="455.914" gradientUnits="userSpaceOnUse">
<stop stop-color="#F25727"/>
<stop offset="1" stop-color="#EC2176"/>
</linearGradient>
<linearGradient id="paint3_linear_2426_453" x1="63.3686" y1="138.263" x2="63.3686" y2="455.914" gradientUnits="userSpaceOnUse">
<stop stop-color="#F25727"/>
<stop offset="1" stop-color="#EC2176"/>
</linearGradient>
<linearGradient id="paint4_linear_2426_453" x1="63.3686" y1="138.263" x2="63.3686" y2="455.914" gradientUnits="userSpaceOnUse">
<stop stop-color="#F25727"/>
<stop offset="1" stop-color="#EC2176"/>
</linearGradient>
<linearGradient id="paint5_linear_2426_453" x1="63.3686" y1="138.263" x2="63.3686" y2="455.914" gradientUnits="userSpaceOnUse">
<stop stop-color="#F25727"/>
<stop offset="1" stop-color="#EC2176"/>
</linearGradient>
<linearGradient id="paint6_linear_2426_453" x1="1521" y1="144" x2="1521" y2="359" gradientUnits="userSpaceOnUse">
<stop stop-color="#F25727"/>
<stop offset="1" stop-color="#EC2176"/>
</linearGradient>
</defs>
</svg>
